# Blender v2.80 (sub 75) OBJ File: ''
# www.blender.org
mtllib sky.mtl
o sky
v 372.265594 -9.375000 -0.000002
v 296.437500 133.250000 0.000022
v 263.234406 -9.374957 -263.234406
v 209.609406 133.250031 -209.609390
v 0.000000 -9.374939 -372.265594
v 0.000000 133.250046 -296.437469
v -263.234406 -9.374957 -263.234406
v -209.609406 133.250031 -209.609390
v -372.265594 -9.375000 -0.000002
v -296.437500 133.250000 0.000022
v -263.234406 -9.375043 263.234406
v -209.609406 133.249969 209.609421
v 0.000000 -9.375061 372.265594
v 0.000000 133.249954 296.437531
v 263.234406 -9.375043 263.234406
v 209.609406 133.249969 209.609421
v 372.265594 -9.375000 -0.000002
v 296.437500 133.250000 0.000022
v 296.437500 133.250000 0.000022
v 209.609406 133.249969 209.609421
v 0.000000 192.328094 0.000031
v 0.000000 133.249954 296.437531
v -209.609406 133.249969 209.609421
v -209.609406 133.249969 209.609421
v -296.437500 133.250000 0.000022
v 0.000000 192.328094 0.000031
v -209.609406 133.250031 -209.609390
v 0.000000 133.250046 -296.437469
v 296.437500 133.250000 0.000022
v 0.000000 192.328094 0.000031
v 209.609406 133.250031 -209.609390
v 0.000000 133.250046 -296.437469
vt -2.500000 -1.055664
vt -2.500000 -0.117188
vt -1.746582 -1.055664
vt -1.746582 -0.117188
vt -1.000000 -1.055664
vt -1.000000 -0.117188
vt -0.246826 -1.055664
vt -0.246826 -0.117188
vt 0.500000 -1.055664
vt 0.500000 -0.117188
vt 1.242920 -1.055664
vt 1.242920 -0.117188
vt 2.000000 -1.055664
vt 2.000000 -0.117188
vt 2.762451 -1.055664
vt 2.762451 -0.117188
vt 3.500000 -1.055664
vt 3.500000 -0.117188
vt 3.500000 -0.117188
vt 2.762451 -0.117188
vt 0.500000 -0.013672
vt 2.000000 -0.117188
vt 1.242920 -0.117188
vt 1.242920 -0.117188
vt 0.500000 -0.117188
vt 0.500000 -0.013672
vt -0.246826 -0.117188
vt -1.000000 -0.117188
vt -2.500000 -0.117188
vt 0.500000 -0.013672
vt -1.746582 -0.117188
vt -1.000000 -0.117188
vn -0.8292 -0.4409 0.3435
vn -0.6243 -0.4695 0.6243
vn -0.0000 -0.4694 0.8830
vn 0.6243 -0.4695 0.6243
vn 0.8830 -0.4694 0.0000
vn 0.6243 -0.4695 -0.6243
vn 0.0000 -0.4694 -0.8830
vn -0.6243 -0.4695 -0.6243
vn -0.8292 -0.4409 -0.3435
vn -0.1948 -0.9775 -0.0807
vn -0.1382 -0.9807 -0.1382
vn -0.0655 -0.9853 -0.1580
vn 0.0000 -0.9807 -0.1955
vn 0.0807 -0.9775 -0.1948
vn 0.1948 -0.9775 -0.0807
vn 0.1954 -0.9807 -0.0000
vn 0.1580 -0.9853 0.0655
vn 0.1382 -0.9807 0.1382
vn 0.0807 -0.9775 0.1948
vn -0.1948 -0.9775 0.0807
vn -0.1382 -0.9807 0.1382
vn -0.0807 -0.9775 0.1948
usemtl material_0
s 1
f 1/1/1 2/2/1 3/3/2
f 2/2/1 4/4/2 3/3/2
f 3/3/2 4/4/2 5/5/3
f 4/4/2 6/6/3 5/5/3
f 5/5/3 6/6/3 7/7/4
f 6/6/3 8/8/4 7/7/4
f 7/7/4 8/8/4 9/9/5
f 8/8/4 10/10/5 9/9/5
f 9/9/5 10/10/5 11/11/6
f 10/10/5 12/12/6 11/11/6
f 11/11/6 12/12/6 13/13/7
f 12/12/6 14/14/7 13/13/7
f 13/13/7 14/14/7 15/15/8
f 14/14/7 16/16/8 15/15/8
f 15/15/8 16/16/8 17/17/9
f 16/16/8 18/18/9 17/17/9
f 19/19/10 20/20/11 21/21/12
f 20/20/11 22/22/13 21/21/12
f 21/21/12 22/22/13 23/23/14
f 24/24/15 25/25/16 26/26/17
f 25/25/16 27/27/18 26/26/17
f 26/26/17 27/27/18 28/28/19
f 29/29/20 30/30/21 31/31/21
f 30/30/21 32/32/22 31/31/21
